<svg width="375" height="172" viewBox="0 0 375 172" fill="none" xmlns="http://www.w3.org/2000/svg">
<rect width="375" height="172" fill="#483EFF"/>
<mask id="mask0_0_474" style="mask-type:luminance" maskUnits="userSpaceOnUse" x="0" y="0" width="375" height="172">
<rect width="375" height="172" fill="white"/>
</mask>
<g mask="url(#mask0_0_474)">
<path fill-rule="evenodd" clip-rule="evenodd" d="M-80.9251 219.812C-25.311 350.916 217.322 427.844 280.639 321.572C343.956 215.3 183.745 196.014 127.111 86.1962C70.4757 -23.6216 26.4674 -92.1632 -55.3652 -67.1445C-137.198 -42.1257 -136.539 88.7075 -80.9251 219.812Z" fill="#6259FF"/>
<path fill-rule="evenodd" clip-rule="evenodd" d="M311.62 304.909C400.568 263.458 447.71 94.5169 373.003 53.4688C298.295 12.4208 288.866 123.215 214.602 164.858C140.337 206.501 94.1937 238.455 113.391 294.208C132.588 349.961 222.671 346.361 311.62 304.909Z" fill="#F9818E"/>
<path d="M212.247 111.33L227.795 95.4897" stroke="white" stroke-width="5" stroke-linecap="round" stroke-linejoin="bevel"/>
<path d="M276.974 119.369L258.643 103.973" stroke="white" stroke-width="5" stroke-linecap="round" stroke-linejoin="bevel"/>
<path d="M244.871 140.493L234.744 162.184" stroke="white" stroke-width="5" stroke-linecap="round" stroke-linejoin="bevel"/>
<path d="M-29.624 225.367C24.6181 225.367 68.5901 181.395 68.5901 127.153C68.5901 72.9107 24.6181 28.9387 -29.624 28.9387C-83.8662 28.9387 -127.838 72.9107 -127.838 127.153C-127.838 181.395 -83.8662 225.367 -29.624 225.367Z" fill="#FFAF7E"/>
</g>
</svg>
